<?xml version="1.0" encoding="UTF-8" standalone="no"?>
<!-- Created with Inkscape (http://www.inkscape.org/) -->

<svg
   xmlns:dc="http://purl.org/dc/elements/1.1/"
   xmlns:cc="http://creativecommons.org/ns#"
   xmlns:rdf="http://www.w3.org/1999/02/22-rdf-syntax-ns#"
   xmlns:svg="http://www.w3.org/2000/svg"
   xmlns="http://www.w3.org/2000/svg"
   xmlns:sodipodi="http://sodipodi.sourceforge.net/DTD/sodipodi-0.dtd"
   xmlns:inkscape="http://www.inkscape.org/namespaces/inkscape"
   width="89.999977mm"
   height="95.738564mm"
   viewBox="0 0 89.999978 95.738564"
   version="1.1"
   id="svg8"
   inkscape:version="0.92.3 (2405546, 2018-03-11)"
   sodipodi:docname="vector.svg">
  <defs
     id="defs2" />
  <sodipodi:namedview
     id="base"
     pagecolor="#ffffff"
     bordercolor="#666666"
     borderopacity="1.0"
     inkscape:pageopacity="0.0"
     inkscape:pageshadow="2"
     inkscape:zoom="1.4"
     inkscape:cx="80.228172"
     inkscape:cy="134.05313"
     inkscape:document-units="mm"
     inkscape:current-layer="layer1"
     showgrid="false"
     fit-margin-top="0"
     fit-margin-left="0"
     fit-margin-right="0"
     fit-margin-bottom="0"
     inkscape:window-width="1916"
     inkscape:window-height="1057"
     inkscape:window-x="0"
     inkscape:window-y="0"
     inkscape:window-maximized="0" />
  <metadata
     id="metadata5">
    <rdf:RDF>
      <cc:Work
         rdf:about="">
        <dc:format>image/svg+xml</dc:format>
        <dc:type
           rdf:resource="http://purl.org/dc/dcmitype/StillImage" />
        <dc:title></dc:title>
      </cc:Work>
    </rdf:RDF>
  </metadata>
  <g
     inkscape:label="Layer 1"
     inkscape:groupmode="layer"
     id="layer1"
     transform="translate(-36.722589,-159.88649)">
    <path
       inkscape:connector-curvature="0"
       id="path997"
       d="m 88.217652,255.54674 c -0.0911,-0.0367 -0.307686,-0.33762 -0.481293,-0.66891 -0.173606,-0.33128 -0.538753,-0.85642 -0.811437,-1.16696 l -0.495788,-0.56464 -0.755086,0.40293 c -0.956733,0.51055 -1.6536,0.53404 -2.325093,0.0784 -1.098489,-0.74545 -1.481175,-0.87156 -2.359634,-0.77748 -0.660114,0.0707 -0.97972,0.0344 -1.629125,-0.18537 -0.906918,-0.30681 -1.151324,-0.46228 -1.368872,-0.87075 -0.183912,-0.34531 -0.200014,-2.71953 -0.02472,-3.64389 0.06918,-0.36476 0.0961,-0.73651 0.05984,-0.82613 -0.03625,-0.0897 -0.473975,-0.36007 -0.972698,-0.601 -1.260337,-0.60888 -4.214083,-3.36764 -4.734577,-4.42203 -0.34117,-0.69112 -0.816746,-2.42046 -0.816746,-2.96994 0,-0.52549 -0.259112,-0.99443 -0.862487,-1.56091 -1.263518,-1.18626 -1.98027,-1.48091 -3.923659,-1.61301 -4.184968,-0.28448 -8.256224,-1.25603 -11.324438,-2.70245 -3.390418,-1.59831 -6.016776,-3.64327 -9.060971,-7.05511 -0.349132,-0.39131 -1.452195,-1.56036 -2.451248,-2.59792 -3.239448,-3.36429 -4.197004,-5.27163 -5.806765,-11.56649 -0.382069,-1.49405 -0.761306,-3.24035 -0.842748,-3.88066 -0.08143,-0.6403 -0.240193,-1.74521 -0.352781,-2.45534 -0.280312,-1.76799 -0.173927,-4.45389 0.271646,-6.85824 0.349052,-1.88351 0.613676,-3.73588 1.171845,-8.2029 0.317434,-2.54044 0.989099,-5.6958 1.62695,-7.64312 0.441425,-1.34764 1.339536,-3.33961 2.984282,-6.61897 1.691114,-3.3718 2.603012,-4.84566 3.323869,-5.37221 0.261233,-0.19082 0.766018,-0.56104 1.121744,-0.82271 0.355728,-0.26165 1.607241,-1.01756 2.78114,-1.67975 1.173899,-0.6622 2.606699,-1.47905 3.184002,-1.81524 1.082306,-0.63027 5.544145,-2.46543 7.940551,-3.26593 3.652896,-1.22024 5.225461,-1.65122 8.86057,-2.42831 0.995889,-0.2129 2.363821,-0.52623 3.03985,-0.69629 0.676029,-0.17006 1.716474,-0.3749 2.312101,-0.4552 1.483503,-0.2 7.828456,-0.20676 9.136108,-0.009 2.819332,0.42481 3.724879,0.58159 4.915502,0.85107 1.373006,0.31075 2.397955,0.59137 3.55727,0.97392 0.3913,0.1291 1.744064,0.55995 3.006141,0.95739 3.16099,0.99544 4.356883,1.59951 8.312443,4.19875 2.60219,1.70994 5.31068,3.7109 6.4031,4.73048 0.46244,0.43161 1.30647,1.15827 1.87564,1.6148 1.94278,1.55831 2.76053,2.37959 5.22329,5.24581 1.86506,2.17061 3.61821,5.27415 4.42081,7.826 0.30208,0.96046 0.85987,2.68757 1.23955,3.83802 0.39758,1.20474 0.77258,2.63958 0.88436,3.38373 0.25692,1.71053 0.30379,6.93289 0.0814,9.07702 -0.19548,1.88532 -0.10053,8.08118 0.18089,11.79808 0.16015,2.11539 0.21451,2.41003 0.71123,3.85417 1.23359,3.58645 1.50211,5.24688 1.11436,6.89092 -0.17962,0.76162 -0.33346,1.03222 -1.17661,2.06969 -2.24446,2.76168 -2.44318,2.9265 -4.01253,3.32788 -0.56583,0.14468 -1.23387,0.40004 -1.48455,0.56738 -1.38756,0.92633 -3.11247,3.00106 -4.04517,4.86554 -0.403,0.80557 -0.42157,0.90984 -0.44348,2.4886 -0.0313,2.26077 -0.41916,4.03865 -1.18206,5.41937 -0.30802,0.55747 -0.32109,0.64796 -0.18669,1.29356 0.14423,0.69306 0.3784,2.55512 0.51503,4.09646 0.1097,1.2381 -0.26692,1.70721 -1.37082,1.70721 -0.39786,0 -0.60471,0.10634 -1.11052,0.57069 -0.61872,0.56806 -1.75994,1.11094 -2.33535,1.11094 -0.1661,0 -0.59869,-0.0685 -0.96129,-0.15217 -0.65117,-0.15034 -0.66448,-0.14713 -1.0812,0.25676 -0.28068,0.27205 -0.73626,0.50345 -1.36086,0.69123 l -0.93895,0.28227 -0.70853,-0.29366 c -0.6948,-0.28798 -0.71506,-0.28904 -1.04579,-0.0539 -1.12698,0.80105 -1.24884,0.82287 -2.70011,0.48354 l -0.9077,-0.21224 -0.495885,0.33652 c -0.272737,0.18508 -0.70242,0.37526 -0.954853,0.42261 -0.597358,0.11214 -2.763879,-0.0425 -2.930448,-0.20907 -0.187129,-0.18713 -0.621779,-0.15837 -1.189077,0.0787 -0.7016,0.29314 -1.925804,0.14316 -3.162012,-0.38759 -0.136755,-0.0587 -0.465337,0.17926 -1.04764,0.75871 -0.763089,0.75935 -0.899138,0.84321 -1.353021,0.83403 -0.277543,-0.006 -0.579164,-0.0402 -0.670268,-0.0767 z m 1.152345,-0.59214 c 0.107436,-0.0889 0.540583,-0.56306 0.962548,-1.05363 l 0.767212,-0.89194 0.04429,-1.50112 c 0.04365,-1.47957 0.0394,-1.50571 -0.295755,-1.81916 -0.328168,-0.30691 -0.395192,-0.31669 -1.919013,-0.2802 -0.984775,0.0235 -1.612594,0.0923 -1.668321,0.18239 -0.141186,0.22845 -0.272137,1.96162 -0.211521,2.79963 0.04612,0.63774 0.130262,0.85454 0.513723,1.32378 0.252208,0.30864 0.555961,0.75033 0.675007,0.98155 0.165658,0.32176 0.300928,0.42041 0.576469,0.42041 0.198011,0 0.447922,-0.0727 0.555359,-0.16171 z m 9.31229,-0.89299 c 0.893025,-0.26755 0.955134,-0.42518 0.953258,-2.41913 -0.0013,-1.39906 -0.04855,-1.86962 -0.227775,-2.2693 l -0.226112,-0.50424 -1.502208,0.0739 c -0.826213,0.0406 -1.552341,0.12406 -1.613616,0.18539 -0.326815,0.32681 -0.536722,4.23688 -0.25164,4.68748 0.209578,0.33126 2.054987,0.48942 2.868093,0.24581 z m -3.952334,-0.25412 0.379817,-0.18184 0.03606,-1.70768 c 0.02704,-1.28048 -0.01176,-1.8221 -0.155094,-2.16516 l -0.19115,-0.45749 h -1.421875 c -0.997666,0 -1.451855,0.0483 -1.522365,0.16169 -0.111592,0.17956 -0.282802,3.65288 -0.197622,4.00928 0.05027,0.21034 0.518175,0.40129 1.317687,0.53774 0.527565,0.09 1.347882,-0.002 1.754545,-0.19654 z m -9.127796,-0.47566 c 0.677762,-0.33014 0.876664,-0.8511 0.894858,-2.34378 0.01176,-0.96413 -0.0295,-1.3063 -0.171754,-1.42435 -0.102975,-0.0854 -0.758921,-0.24115 -1.457665,-0.34599 -0.698746,-0.10481 -1.486885,-0.25535 -1.751424,-0.33446 -0.7495,-0.22416 -0.826793,-0.0827 -0.931308,1.70407 -0.04984,0.85217 -0.0433,1.63396 0.01451,1.73731 0.05784,0.10344 0.512415,0.45734 1.010167,0.78663 0.808896,0.53512 0.959951,0.59033 1.422425,0.5199 0.284582,-0.0434 0.721156,-0.17804 0.970165,-0.29933 z m 17.533093,-0.0588 c 0.36417,-0.33693 0.47692,-0.56169 0.56788,-1.13187 0.14178,-0.88908 -0.0194,-3.1501 -0.24386,-3.42057 -0.20218,-0.24361 -1.00854,-0.25556 -2.20513,-0.0327 l -0.8408,0.15661 -0.0874,0.58115 c -0.15104,1.00402 -0.11501,3.1438 0.0588,3.49164 0.22162,0.44354 0.94069,0.77571 1.67982,0.77594 0.51605,1.3e-4 0.69027,-0.0681 1.07073,-0.4202 z m 3.22834,-0.16723 c 0.52592,-0.15289 0.82987,-0.35284 1.29937,-0.85477 l 0.61285,-0.65521 -0.0765,-1.11789 c -0.10481,-1.53182 -0.33852,-2.5913 -0.6027,-2.73268 -0.21482,-0.1149 -2.21258,0.24341 -2.79939,0.50219 -0.40207,0.17732 -0.5533,1.00899 -0.50806,2.79421 0.0437,1.72303 0.0882,1.91136 0.49747,2.1092 0.40261,0.19457 0.79089,0.18346 1.57697,-0.0451 z m -24.947699,-0.89462 c 0.227012,-0.159 0.283176,-0.37769 0.357124,-1.39056 0.144226,-1.9755 -0.120606,-2.41811 -1.794997,-3.00004 -1.429858,-0.49694 -1.645613,-0.23899 -1.720485,2.05686 -0.03948,1.21064 -0.0096,1.60667 0.135578,1.79946 0.456352,0.60591 2.423999,0.9537 3.022786,0.53428 z m 29.077429,-0.0886 c 0.44147,-0.16895 0.89499,-0.46579 1.1603,-0.75945 l 0.43555,-0.4821 0.0938,-1.81328 c 0.0973,-1.8787 0.0188,-2.85367 -0.23766,-2.9519 -0.0819,-0.0313 -0.61337,0.17644 -1.1812,0.46176 -0.56781,0.2853 -1.10203,0.51874 -1.18714,0.51874 -0.28564,0 -0.65139,0.62674 -0.80749,1.3837 -0.1071,0.51924 -0.12299,1.20758 -0.0515,2.23272 0.0999,1.43266 0.11412,1.48505 0.42672,1.57171 0.50793,0.14087 0.58009,0.13216 1.34849,-0.1619 z m 3.53466,-1.75414 c 0.21408,-0.28732 0.20415,-0.93849 -0.0312,-2.04325 -0.10603,-0.498 -0.23046,-1.31292 -0.27642,-1.81094 -0.11871,-1.28662 -0.38108,-1.65361 -0.84819,-1.18649 -0.24883,0.24882 -0.22374,4.89812 0.0281,5.20153 0.21488,0.25892 0.88627,0.16316 1.12768,-0.16085 z M 94.333638,246.7039 c 4.174121,-0.17051 6.919372,-0.35253 7.616182,-0.50498 0.29326,-0.0642 1.02799,-0.18347 1.63272,-0.26514 2.01638,-0.27227 5.03147,-1.00438 5.86754,-1.42473 1.14074,-0.57353 2.34211,-1.42537 2.64503,-1.87549 0.30184,-0.44849 0.59736,-2.24976 0.77567,-4.72776 0.13552,-1.88241 0.41963,-2.6682 1.51914,-4.20067 0.36075,-0.50281 0.84493,-1.24458 1.07596,-1.64838 0.75821,-1.3252 2.71265,-2.89346 3.89801,-3.1278 0.9263,-0.18311 2.91989,-0.85419 3.1893,-1.07356 0.40795,-0.33217 1.60186,-1.85595 1.74884,-2.23204 0.0695,-0.17787 0.15862,-0.81818 0.198,-1.42292 0.0833,-1.2795 -0.19111,-2.5823 -0.99459,-4.72146 -0.26723,-0.71146 -0.55856,-1.60361 -0.64738,-1.98259 -0.17829,-0.76065 -0.40507,-0.94175 -0.76802,-0.6133 -0.39896,0.36107 -1.47038,0.70097 -2.86848,0.91002 -1.95778,0.29273 -3.01485,0.26159 -3.81819,-0.11245 -1.04185,-0.48511 -2.36087,-1.82553 -3.22794,-3.2803 -1.65717,-2.78039 -3.26467,-4.79689 -5.30894,-6.6597 -0.42058,-0.38324 -0.61641,-0.72147 -0.93762,-1.61943 -0.47245,-1.3208 -0.51497,-2.13101 -0.16518,-3.1477 0.776,-2.2555 1.64556,-3.178 4.08472,-4.33344 2.54809,-1.20706 4.77385,-1.4092 7.68604,-0.69806 2.8074,0.68553 3.81078,1.24725 4.79332,2.68343 0.15819,0.23123 0.37096,0.42041 0.47284,0.42041 0.15536,0 0.18484,-0.47431 0.18285,-2.94284 -0.003,-3.8366 -0.17038,-5.01739 -1.04286,-7.36031 -0.36694,-0.98537 -0.79792,-2.14232 -0.95774,-2.57103 -1.10086,-2.95278 -2.81722,-6.11175 -4.32741,-7.96459 -2.25249,-2.76357 -2.96301,-3.48042 -5.63498,-5.68533 -0.71146,-0.5871 -1.5846,-1.34163 -1.94033,-1.67674 -1.21712,-1.1466 -5.3572,-4.07325 -8.64973,-6.11457 -1.599831,-0.99188 -3.605436,-1.72098 -7.843068,-2.85125 -5.805198,-1.54838 -8.820995,-1.97829 -13.452949,-1.91776 -2.836345,0.0371 -4.176723,0.18117 -6.01502,0.64674 -0.569164,0.14407 -1.849782,0.41833 -2.845817,0.60932 -2.31196,0.4433 -3.698206,0.85697 -7.161619,2.13712 -6.59306,2.4369 -7.802313,2.99049 -11.982963,5.48567 -0.640308,0.38217 -1.538294,0.91712 -1.995524,1.18878 -1.102234,0.6549 -1.885334,1.36717 -1.786446,1.62487 0.04218,0.10985 0.543489,0.35531 1.114027,0.54531 0.570535,0.19001 1.171384,0.44644 1.335218,0.56984 0.163836,0.12345 0.734456,0.47661 1.268047,0.78491 0.53359,0.30828 1.185665,0.71289 1.449053,0.89913 1.519275,1.07426 5.482082,4.94433 6.568089,6.41441 1.187592,1.60758 2.766531,4.02374 3.053449,4.67251 0.170072,0.38457 0.635238,1.81985 1.0337,3.1895 l 0.724481,2.49032 -0.06334,2.005 c -0.07514,2.3782 -0.299928,5.52687 -0.48484,6.79115 -0.07283,0.49802 -0.391132,1.66222 -0.707315,2.5871 -0.621691,1.81855 -0.946666,3.37842 -1.293557,6.20906 -0.122057,0.99604 -0.354562,2.22293 -0.516665,2.72643 -0.162103,0.50351 -0.337142,1.31148 -0.388978,1.79551 -0.06645,0.62043 -0.171394,0.95721 -0.355762,1.14157 -0.255709,0.25571 -0.265492,0.25608 -0.440621,0.0167 -0.219234,-0.29982 -0.130735,-1.51616 0.231996,-3.18863 0.156967,-0.72373 0.245184,-1.6404 0.245184,-2.54767 0,-1.74819 0.397643,-4.54176 0.90343,-6.34687 0.209316,-0.74703 0.438586,-1.62316 0.509492,-1.94696 0.208417,-0.95179 0.687696,-7.4793 0.62162,-8.46613 -0.0697,-1.041 -0.809386,-4.06321 -1.371311,-5.60291 -0.584792,-1.60238 -2.500941,-4.63209 -3.907469,-6.1783 -0.512812,-0.56373 -1.151895,-1.32139 -1.420186,-1.68369 -0.610194,-0.82398 -2.762555,-2.8218 -3.65474,-3.39233 -1.847846,-1.18163 -4.537032,-2.48139 -5.133997,-2.48139 -0.344982,0 -2.333464,3.4912 -3.389137,5.95034 -0.229063,0.53359 -0.510466,1.11569 -0.625343,1.29355 -0.114876,0.17787 -0.285961,0.52712 -0.380193,0.77613 -0.09423,0.24902 -0.334806,0.83533 -0.534611,1.30295 -0.633624,1.48289 -1.262172,5.18673 -1.535032,9.04548 -0.07295,1.0316 -0.161304,2.05027 -0.196349,2.26371 -0.245183,1.4933 -0.724302,5.82152 -0.786998,7.10949 -0.148229,3.04512 0.789583,7.93605 2.431686,12.68187 0.358318,1.03557 1.566691,3.44437 2.183616,4.35287 0.763408,1.12422 6.98495,7.38106 8.200818,8.24735 3.811913,2.71594 6.353668,3.64491 12.61214,4.60959 3.108217,0.4791 3.761855,0.63252 4.527434,1.06265 0.391301,0.21984 1.061107,0.57498 1.488459,0.78921 2.135769,1.0706 4.088807,4.24018 3.876996,6.29197 -0.07091,0.68689 -0.04461,0.82367 0.228716,1.18959 0.169863,0.2274 0.674559,0.68269 1.121552,1.01173 0.446989,0.32906 1.054291,0.81919 1.349557,1.08915 0.696495,0.63684 1.015217,0.79244 3.222197,1.57297 3.703015,1.30961 6.065659,1.71835 9.215336,1.59426 0.711454,-0.028 2.80701,-0.11275 4.65679,-0.18833 z m 4.010015,-9.36124 c -1.248278,-0.39582 -2.314579,-1.15144 -2.604694,-1.84578 -0.540508,-1.29361 0.08356,-3.67473 1.926623,-7.3511 0.585741,-1.16839 2.365788,-5.42881 3.161668,-7.56729 0.5036,-1.35312 1.67911,-2.44932 2.98542,-2.78397 0.70454,-0.1805 0.83129,-0.17935 1.40402,0.0122 0.74868,0.25107 1.03248,0.48244 1.3366,1.08964 0.22547,0.45019 0.80341,2.96285 1.03092,4.48204 0.17416,1.16296 0.54857,1.77833 1.9101,3.1395 0.67034,0.67014 1.31135,1.39745 1.42449,1.61623 0.12558,0.24295 0.23044,0.87051 0.26923,1.61229 l 0.0636,1.21451 -0.69383,1.35516 c -0.3816,0.74533 -0.91241,1.60349 -1.1796,1.90702 -0.55108,0.62607 -2.23124,1.56288 -3.0329,1.69108 -0.49184,0.0787 -0.55908,0.0451 -1.43403,-0.71541 -1.57915,-1.37262 -2.08492,-2.35941 -2.48809,-4.85448 -0.33029,-2.04397 -0.54843,-3.1317 -0.66627,-3.32241 -0.33229,-0.53763 -1.02077,0.9894 -1.01899,2.26008 10e-4,0.89598 0.65619,4.31743 0.98263,5.13324 0.12589,0.31468 0.49677,0.77724 0.92274,1.15089 l 0.71222,0.62472 -0.22529,0.34384 c -0.26758,0.40838 -1.0465,0.65988 -2.64874,0.85522 -1.335787,0.16285 -1.484048,0.15955 -2.137757,-0.0477 z m -12.408867,-4.16127 c -0.129574,-0.12956 -0.203273,-0.43347 -0.203273,-0.83819 0,-1.26155 -0.712753,-2.36991 -1.915531,-2.9787 -0.576326,-0.29172 -0.733964,-0.30733 -3.129325,-0.31022 -1.569054,-0.002 -3.28513,0.0827 -4.540378,0.22353 -2.42554,0.27232 -3.393275,0.19208 -5.41998,-0.44936 -2.177235,-0.6891 -4.010014,-2.15671 -4.010014,-3.21106 0,-0.4418 0.410438,-1.02889 0.719297,-1.02889 0.31547,0 0.703612,0.37477 0.703612,0.67939 0,0.59224 1.364858,1.59788 2.858994,2.10652 1.701689,0.57929 2.438077,0.63063 4.536154,0.31622 1.019566,-0.15279 2.203014,-0.33 2.629887,-0.3938 1.046083,-0.15637 3.105416,-0.1511 3.955242,0.0107 0.380596,0.0721 1.101612,0.34234 1.602258,0.60038 1.961485,1.01091 2.520164,1.58173 3.038655,3.10469 0.341933,1.00437 0.29966,1.69099 -0.130598,2.12125 -0.304598,0.30461 -0.429928,0.3133 -0.694999,0.0483 z m 26.934274,-0.38655 c -0.11199,-0.24563 -0.11581,-0.61388 -0.0153,-1.42639 0.17562,-1.41748 0.68602,-2.41611 1.83185,-3.58412 1.40431,-1.43149 2.27515,-1.86512 4.35195,-2.16698 0.56761,-0.0825 1.38255,-0.25573 1.81097,-0.38492 1.18016,-0.35591 2.2341,-0.5423 2.5319,-0.44778 0.19742,0.0626 0.2567,0.1744 0.22723,0.42837 -0.0348,0.3008 -0.20902,0.41928 -1.39809,0.95124 -1.40515,0.62862 -2.00056,0.79974 -3.54443,1.0187 -1.4463,0.20513 -2.69526,1.10136 -3.91305,2.80795 -0.52782,0.73966 -0.6061,0.94049 -0.70283,1.80299 -0.0599,0.53384 -0.17634,1.05194 -0.25883,1.15134 -0.25088,0.30229 -0.75254,0.22041 -0.9215,-0.15034 z M 80.380612,221.02005 c -1.748307,-0.42318 -3.192668,-1.52342 -4.081185,-3.10887 -0.314186,-0.56063 -0.758005,-1.31036 -0.986266,-1.6661 -1.102246,-1.71775 -1.949609,-3.72126 -2.215038,-5.23721 -0.494129,-2.82211 -0.450673,-3.59879 0.332069,-5.93511 0.49602,-1.48053 0.839955,-2.02291 1.99673,-3.14887 1.06381,-1.03544 1.522329,-1.32758 3.353948,-2.13682 2.76096,-1.21984 4.089721,-1.43384 8.567583,-1.37983 4.134073,0.0498 5.312266,0.132 6.307952,0.43972 2.189042,0.67653 3.45929,2.30459 3.45765,4.43165 -0.0012,1.51442 -0.427383,2.62404 -1.65214,4.30119 -0.801628,1.09774 -1.672207,2.82443 -2.216694,4.39656 -0.67032,1.93545 -1.965079,4.40283 -2.946722,5.61545 -1.133241,1.39991 -1.665195,1.68935 -5.114672,2.78307 -2.897917,0.91883 -3.39613,0.98575 -4.803215,0.64517 z"
       style="fill:#010101;stroke-width:0.12935528" />
  </g>
</svg>
